<svg xmlns="http://www.w3.org/2000/svg" xmlns:xlink="http://www.w3.org/1999/xlink" width="22" height="22" viewBox="0 0 22 22"><defs><path id="j6z3a" d="M979.633 5770.957a.73.73 0 0 1-.216.523l-4.772 4.771a.736.736 0 0 1-1.04-1.04l4.254-4.254-4.254-4.255a.737.737 0 0 1 1.04-1.041l4.772 4.773a.732.732 0 0 1 .216.523zm7.364.053c0 6.066-4.918 10.985-10.985 10.985-6.066 0-10.984-4.919-10.984-10.984 0-6.068 4.918-10.985 10.984-10.985 6.067 0 10.985 4.917 10.985 10.985zm-1.472 0c0-5.245-4.268-9.513-9.513-9.513-5.244 0-9.513 4.268-9.513 9.514 0 5.242 4.269 9.512 9.513 9.512 5.245 0 9.513-4.27 9.513-9.513z"/></defs><g><g transform="translate(-965 -5760)"><use xlink:href="#j6z3a"/><use fill="#c7b299" xlink:href="#j6z3a"/></g></g></svg>